<svg width="24" height="24" viewBox="0 0 24 24" fill="none" xmlns="http://www.w3.org/2000/svg">
<path fill-rule="evenodd" clip-rule="evenodd" d="M0 -2.39844V24.6016H36V-2.39844H0Z" fill="#FFB400"/>
<mask id="mask0_9035_24519" style="mask-type:luminance" maskUnits="userSpaceOnUse" x="0" y="-3" width="36" height="28">
<path fill-rule="evenodd" clip-rule="evenodd" d="M0 -2.39844V24.6016H36V-2.39844H0Z" fill="white"/>
</mask>
<g mask="url(#mask0_9035_24519)">
<path fill-rule="evenodd" clip-rule="evenodd" d="M0 -2.39844V4.35156H36V-2.39844H0Z" fill="#C51918"/>
<path fill-rule="evenodd" clip-rule="evenodd" d="M0 17.8516V24.6016H36V17.8516H0Z" fill="#C51918"/>
<rect x="5.63428" y="9.16016" width="1.26" height="6.552" fill="#F1F9FF"/>
<path fill-rule="evenodd" clip-rule="evenodd" d="M7.39764 8.02344H5.12964V8.65344H5.50757V9.15617H7.01957V8.65344H7.39764V8.02344Z" fill="#C88A02"/>
<path fill-rule="evenodd" clip-rule="evenodd" d="M7.01988 16.0899H7.39788V16.7199H5.12988V16.0899H5.50788V15.5859H7.01988V16.0899Z" fill="#C88A02"/>
<path fill-rule="evenodd" clip-rule="evenodd" d="M6.26408 8.15162C6.53828 8.15162 6.56615 8.04838 6.72792 7.89417C6.85353 7.77443 7.14608 7.62592 7.14608 7.45862C7.14608 7.07589 6.7512 6.76562 6.26408 6.76562C5.77696 6.76562 5.38208 7.07589 5.38208 7.45862C5.38208 7.645 5.58354 7.76962 5.73587 7.89417C5.89636 8.02539 6.01417 8.15162 6.26408 8.15162Z" fill="#AD1619"/>
<path fill-rule="evenodd" clip-rule="evenodd" d="M5.12964 16.7188H7.39764V17.7267C7.39764 17.7267 7.11414 17.6007 6.83064 17.6007C6.54714 17.6007 6.26364 17.7267 6.26364 17.7267C6.26364 17.7267 5.98014 17.6007 5.69664 17.6007C5.41314 17.6007 5.12964 17.7267 5.12964 17.7267V16.7188Z" fill="#005BBF"/>
<mask id="mask1_9035_24519" style="mask-type:luminance" maskUnits="userSpaceOnUse" x="5" y="16" width="3" height="2">
<path fill-rule="evenodd" clip-rule="evenodd" d="M5.12964 16.7188H7.39764V17.7267C7.39764 17.7267 7.11414 17.6007 6.83064 17.6007C6.54714 17.6007 6.26364 17.7267 6.26364 17.7267C6.26364 17.7267 5.98014 17.6007 5.69664 17.6007C5.41314 17.6007 5.12964 17.7267 5.12964 17.7267V16.7188Z" fill="white"/>
</mask>
<g mask="url(#mask1_9035_24519)">
<path d="M5.10883 17.5268L5.05933 17.4061C5.2636 17.3151 5.46861 17.2695 5.67392 17.2695C5.80657 17.2695 5.87583 17.288 5.99359 17.3404C6.09702 17.3865 6.15064 17.4008 6.26376 17.4008C6.37688 17.4008 6.43049 17.3865 6.53393 17.3404C6.65168 17.288 6.72095 17.2695 6.8536 17.2695C7.05891 17.2695 7.26392 17.3151 7.46819 17.4061L7.41869 17.5268C7.22974 17.4427 7.04151 17.4008 6.8536 17.4008C6.74048 17.4008 6.68686 17.4151 6.58343 17.4611C6.46567 17.5135 6.39641 17.532 6.26376 17.532C6.13111 17.532 6.06184 17.5135 5.94409 17.4611C5.84065 17.4151 5.78704 17.4008 5.67392 17.4008C5.486 17.4008 5.29778 17.4427 5.10883 17.5268Z" fill="white"/>
<path d="M5.10883 17.1478L5.05933 17.0272C5.2636 16.9362 5.46861 16.8906 5.67392 16.8906C5.80657 16.8906 5.87583 16.9091 5.99359 16.9615C6.09702 17.0076 6.15064 17.0219 6.26376 17.0219C6.37688 17.0219 6.43049 17.0076 6.53393 16.9615C6.65168 16.9091 6.72095 16.8906 6.8536 16.8906C7.05891 16.8906 7.26392 16.9362 7.46819 17.0272L7.41869 17.1478C7.22974 17.0638 7.04151 17.0219 6.8536 17.0219C6.74048 17.0219 6.68686 17.0362 6.58343 17.0822C6.46567 17.1346 6.39641 17.1531 6.26376 17.1531C6.13111 17.1531 6.06184 17.1346 5.94409 17.0822C5.84065 17.0362 5.78704 17.0219 5.67392 17.0219C5.486 17.0219 5.29778 17.0638 5.10883 17.1478Z" fill="white"/>
</g>
<rect x="17.9819" y="9.16016" width="1.26" height="6.552" fill="#F1F9FF"/>
<path fill-rule="evenodd" clip-rule="evenodd" d="M19.7463 8.02344H17.4783V8.65344H17.8562V9.15617H19.3682V8.65344H19.7463V8.02344Z" fill="#C88A02"/>
<path fill-rule="evenodd" clip-rule="evenodd" d="M19.3685 16.0899H19.7465V16.7199H17.4785V16.0899H17.8565V15.5859H19.3685V16.0899Z" fill="#C88A02"/>
<path fill-rule="evenodd" clip-rule="evenodd" d="M18.6117 8.15162C18.8859 8.15162 18.9138 8.04838 19.0756 7.89417C19.2012 7.77443 19.4937 7.62592 19.4937 7.45862C19.4937 7.07589 19.0989 6.76562 18.6117 6.76562C18.1246 6.76562 17.7297 7.07589 17.7297 7.45862C17.7297 7.645 17.9312 7.76962 18.0835 7.89417C18.244 8.02539 18.3618 8.15162 18.6117 8.15162Z" fill="#AD1619"/>
<path fill-rule="evenodd" clip-rule="evenodd" d="M17.4783 16.7188H19.7463V17.7267C19.7463 17.7267 19.4628 17.6007 19.1793 17.6007C18.8958 17.6007 18.6123 17.7267 18.6123 17.7267C18.6123 17.7267 18.3288 17.6007 18.0453 17.6007C17.7618 17.6007 17.4783 17.7267 17.4783 17.7267V16.7188Z" fill="#005BBF"/>
<mask id="mask2_9035_24519" style="mask-type:luminance" maskUnits="userSpaceOnUse" x="17" y="16" width="3" height="2">
<path fill-rule="evenodd" clip-rule="evenodd" d="M17.4783 16.7188H19.7463V17.7267C19.7463 17.7267 19.4628 17.6007 19.1793 17.6007C18.8958 17.6007 18.6123 17.7267 18.6123 17.7267C18.6123 17.7267 18.3288 17.6007 18.0453 17.6007C17.7618 17.6007 17.4783 17.7267 17.4783 17.7267V16.7188Z" fill="white"/>
</mask>
<g mask="url(#mask2_9035_24519)">
<path d="M17.4575 17.5268L17.408 17.4061C17.6122 17.3151 17.8172 17.2695 18.0226 17.2695C18.1552 17.2695 18.2245 17.288 18.3422 17.3404C18.4457 17.3865 18.4993 17.4008 18.6124 17.4008C18.7255 17.4008 18.7791 17.3865 18.8826 17.3404C19.0003 17.288 19.0696 17.2695 19.2022 17.2695C19.4075 17.2695 19.6125 17.3151 19.8168 17.4061L19.7673 17.5268C19.5784 17.4427 19.3901 17.4008 19.2022 17.4008C19.0891 17.4008 19.0355 17.4151 18.9321 17.4611C18.8143 17.5135 18.745 17.532 18.6124 17.532C18.4797 17.532 18.4105 17.5135 18.2927 17.4611C18.1893 17.4151 18.1357 17.4008 18.0226 17.4008C17.8346 17.4008 17.6464 17.4427 17.4575 17.5268Z" fill="white"/>
<path d="M17.4575 17.1478L17.408 17.0272C17.6122 16.9362 17.8172 16.8906 18.0226 16.8906C18.1552 16.8906 18.2245 16.9091 18.3422 16.9615C18.4457 17.0076 18.4993 17.0219 18.6124 17.0219C18.7255 17.0219 18.7791 17.0076 18.8826 16.9615C19.0003 16.9091 19.0696 16.8906 19.2022 16.8906C19.4075 16.8906 19.6125 16.9362 19.8168 17.0272L19.7673 17.1478C19.5784 17.0638 19.3901 17.0219 19.2022 17.0219C19.0891 17.0219 19.0355 17.0362 18.9321 17.0822C18.8143 17.1346 18.745 17.1531 18.6124 17.1531C18.4797 17.1531 18.4105 17.1346 18.2927 17.0822C18.1893 17.0362 18.1357 17.0219 18.0226 17.0219C17.8346 17.0219 17.6464 17.0638 17.4575 17.1478Z" fill="white"/>
</g>
<path fill-rule="evenodd" clip-rule="evenodd" d="M5.61111 15.2417C5.83827 14.9663 5.9653 14.7157 5.9653 14.4496C5.9653 14.2818 5.91537 14.1369 5.82789 14.0185L5.84267 14.0119C5.84131 14.0125 6.09188 13.9032 6.17912 13.8614C6.34129 13.7837 6.48416 13.7013 6.62346 13.6C6.7124 13.5353 6.83156 13.4649 7.0132 13.3673C7.04453 13.3505 7.12936 13.3055 7.18364 13.2767L7.18387 13.2766L7.22998 13.2521C7.31826 13.205 7.38401 13.1689 7.44508 13.1334C7.6354 13.0231 7.76116 12.9318 7.85736 12.8098C8.08519 12.5209 8.03789 12.1293 7.71862 11.9119C7.5622 11.8054 7.35112 11.7443 7.04171 11.6962L6.97765 11.6863C6.87194 11.67 6.66892 11.6386 6.59919 11.6276C6.45112 11.6044 6.31901 11.5827 6.20121 11.5621C6.97585 11.4332 8.08199 11.4806 8.56855 11.7318L9.03099 10.8361C8.03948 10.3242 5.78033 10.3765 4.93643 10.9576C4.31746 11.3839 4.40052 12.0283 5.04453 12.3057C5.31363 12.4217 5.66444 12.4986 6.31362 12.6029C6.20483 12.666 6.11464 12.7237 6.0306 12.7848C5.94537 12.8468 5.85406 12.8994 5.74331 12.9525C5.69035 12.9779 5.53352 13.0468 5.46162 13.0783L5.46159 13.0783L5.42544 13.0943C4.90087 13.3328 4.64628 13.6627 4.72236 14.2584L4.76354 14.5808L4.83741 14.6035L5.61111 15.2417ZM4.96224 14.4078L4.96064 14.4124L4.96187 14.4092L4.96224 14.4078ZM18.7939 14.4496C18.7939 14.7157 18.9209 14.9663 19.1481 15.2417L19.9218 14.6035L19.9956 14.5808L20.0368 14.2584C20.1129 13.6627 19.8583 13.3328 19.3337 13.0943L19.2976 13.0783L19.2975 13.0783C19.2255 13.0467 19.0688 12.9779 19.0159 12.9525C18.9051 12.8994 18.8138 12.8468 18.7286 12.7848C18.6445 12.7237 18.5543 12.666 18.4456 12.6029C19.0947 12.4986 19.4455 12.4217 19.7146 12.3057C20.3587 12.0283 20.4417 11.3839 19.8227 10.9576C18.9788 10.3765 16.7197 10.3242 15.7282 10.8361L16.1906 11.7318C16.6772 11.4806 17.7833 11.4332 18.558 11.5621C18.4402 11.5827 18.3081 11.6044 18.16 11.6276C18.0904 11.6385 17.888 11.6698 17.7821 11.6862L17.7816 11.6863L17.7175 11.6962C17.4081 11.7443 17.197 11.8054 17.0406 11.9119C16.7213 12.1293 16.674 12.5209 16.9018 12.8098C16.998 12.9318 17.1238 13.0231 17.3141 13.1334C17.3752 13.1689 17.4409 13.205 17.5292 13.2521L17.5751 13.2764L17.5752 13.2765C17.6294 13.3053 17.7146 13.3505 17.746 13.3673C17.9276 13.4649 18.0468 13.5353 18.1357 13.6C18.275 13.7013 18.4179 13.7837 18.5801 13.8614C18.6673 13.9032 18.9179 14.0125 18.9165 14.0119L18.9313 14.0185C18.8438 14.1369 18.7939 14.2818 18.7939 14.4496Z" fill="#AD1619"/>
<path d="M6.66405 11.5547L7.03596 11.6316V12.186C6.63985 12.502 5.63428 13.0347 5.63428 13.0347V11.5547H6.66405Z" fill="#F1F9FF"/>
<path d="M18.354 11.5547L17.9821 11.6316V12.186C18.3782 12.502 19.3838 13.0347 19.3838 13.0347V11.5547H18.354Z" fill="#F1F9FF"/>
<path fill-rule="evenodd" clip-rule="evenodd" d="M16.6238 5.70416V5.51968C15.9757 5.05455 15.297 4.82199 14.5877 4.82199C13.9078 4.52112 13.2196 4.4043 12.5232 4.47155C12.5233 4.46947 12.5234 4.46841 12.5234 4.46841C11.4761 4.36593 10.4206 4.82207 10.4206 4.82207C9.35666 4.82207 8.38452 5.51975 8.38452 5.51975V5.70424L9.65535 6.98058C9.65535 6.98058 10.013 8.209 12.518 7.92037V7.92339C12.518 7.92339 14.1767 7.87812 14.2932 7.83935C14.3394 7.82397 14.3874 7.80997 14.4364 7.79566C14.7613 7.70082 15.1322 7.59254 15.3529 6.9805L16.6238 5.70416ZM12.518 4.53096C12.4812 4.96425 12.2763 7.51374 12.518 7.91131V4.53096Z" fill="#AD1619"/>
<path fill-rule="evenodd" clip-rule="evenodd" d="M9.35293 6.77215L9.35378 6.76825L8.45996 5.92732L8.5463 5.83555L9.38501 6.62463L9.40647 6.52591C9.54372 6.55575 9.64404 6.56672 9.70251 6.56051V6.38929L9.88848 6.48993C9.97995 6.53943 10.111 6.55274 10.2835 6.52467C10.4102 6.50405 10.4957 6.35688 10.5237 6.04326L10.5801 5.41016L10.7695 6.01692C10.8551 6.29149 10.9858 6.41252 11.1719 6.41252C11.3537 6.41252 11.4267 6.3459 11.4348 6.17796L11.4576 5.70166L11.673 6.12708C11.7506 6.28035 11.8576 6.34989 12.0098 6.34989C12.2274 6.34989 12.3728 6.16845 12.3728 5.88377H12.3775H12.6248H12.6295C12.6295 6.16845 12.7749 6.34989 12.9925 6.34989C13.1447 6.34989 13.2517 6.28035 13.3293 6.12708L13.5447 5.70166L13.5676 6.17796C13.5756 6.3459 13.6487 6.41252 13.8304 6.41252C14.0165 6.41252 14.1472 6.29149 14.2329 6.01692L14.4222 5.41016L14.4787 6.04326C14.5066 6.35688 14.5921 6.50405 14.7189 6.52467C14.8914 6.55274 15.0224 6.53943 15.1139 6.48993L15.2998 6.38929V6.56051C15.3583 6.56672 15.4586 6.55575 15.5959 6.52591L15.6357 6.70906L16.5641 5.83555L16.6505 5.92732L15.4948 7.01465C15.3262 7.32518 15.2412 7.53014 15.2412 7.61528C15.2412 7.74517 14.9033 7.82227 14.2438 7.90146C13.727 7.9635 13.1172 8.00514 12.6184 8.01136V8.01217L12.5552 8.01196L12.492 8.01217V8.01136C11.9932 8.00514 11.3834 7.9635 10.8667 7.90146C10.2071 7.82227 9.8692 7.74517 9.8692 7.61528C9.8692 7.59872 9.86599 7.57762 9.85957 7.55208C9.79373 7.46795 9.74727 7.33103 9.71622 7.20697C9.6869 7.14825 9.65338 7.08409 9.61568 7.01465L9.35943 6.77356L9.35293 6.77215ZM15.547 6.79246C15.3407 6.82897 15.1918 6.82527 15.1127 6.76091C14.9891 6.79689 14.844 6.80035 14.6784 6.7734C14.5015 6.74461 14.3783 6.62695 14.3042 6.43176C14.2084 6.5538 14.0875 6.62961 13.9429 6.655C14.7467 6.76931 15.3093 6.9294 15.3093 6.9294C15.3093 6.9294 15.2951 7.0508 15.2606 7.1927C15.2967 7.11873 15.3394 7.03644 15.3889 6.94555L15.4011 6.92979L15.547 6.79246ZM13.5544 6.60607C13.486 6.5713 13.4312 6.52139 13.3914 6.45738C13.3322 6.50964 13.2651 6.54808 13.1906 6.57212C13.3148 6.58167 13.4364 6.59315 13.5544 6.60607ZM12.7389 6.5472C12.642 6.50168 12.5615 6.42947 12.5012 6.33723C12.4413 6.42882 12.3614 6.50066 12.2655 6.54624C12.3221 6.54457 12.379 6.5434 12.4362 6.54276V6.54219L12.4867 6.54233L12.5371 6.54219V6.54276C12.6048 6.54351 12.6721 6.54502 12.7389 6.5472ZM9.69881 6.91987L9.58252 6.81045C9.72352 6.82443 9.82789 6.81116 9.88961 6.76091C10.0133 6.79689 10.1583 6.80035 10.324 6.7734C10.5008 6.74461 10.624 6.62695 10.6982 6.43176C10.7912 6.55026 10.9078 6.62518 11.0469 6.65266C10.3518 6.75057 9.83398 6.88349 9.69881 6.91987ZM11.8063 6.57033C11.6867 6.57926 11.5695 6.59001 11.4555 6.60212C11.5204 6.56756 11.5726 6.51901 11.6109 6.45738C11.6687 6.50836 11.734 6.54619 11.8063 6.57033ZM14.9099 7.61611C14.9985 7.65758 15.0695 7.61591 15.1255 7.53623C15.1204 7.55908 15.1171 7.57967 15.1159 7.59804C15.1085 7.60287 15.0971 7.6087 15.0823 7.61495C15.0408 7.6324 14.9774 7.65099 14.8949 7.6698C14.7329 7.70677 14.5022 7.74353 14.2287 7.77636C13.6948 7.84046 13.0599 7.88265 12.5552 7.88596C12.0505 7.88265 11.4156 7.84046 10.8817 7.77636C10.6083 7.74353 10.3776 7.70677 10.2155 7.6698C10.1451 7.65373 10.0886 7.63783 10.0477 7.62266C10.0529 7.62077 10.0581 7.61859 10.0634 7.61611C10.3387 7.48731 12.1591 7.36643 12.4867 7.34559C12.8142 7.36643 14.6346 7.48731 14.9099 7.61611ZM15.2574 7.59336C15.257 7.5937 15.2564 7.59432 15.2557 7.59523L15.2567 7.59396L15.2574 7.59336Z" fill="#C88A02"/>
<path fill-rule="evenodd" clip-rule="evenodd" d="M12.5023 3.61537C12.711 3.61537 12.8803 3.44614 12.8803 3.23737C12.8803 3.02861 12.711 2.85938 12.5023 2.85938C12.2935 2.85938 12.1243 3.02861 12.1243 3.23737C12.1243 3.44614 12.2935 3.61537 12.5023 3.61537Z" fill="#005BBF"/>
<path fill-rule="evenodd" clip-rule="evenodd" d="M12.2564 5.46849C12.2646 5.51058 12.2774 5.54973 12.2937 5.58452C12.2447 5.56567 12.1864 5.55473 12.1239 5.55473C11.9499 5.55473 11.8089 5.63935 11.8089 5.74373C11.8089 5.84812 11.9499 5.93273 12.1239 5.93273C12.2978 5.93273 12.4389 5.84812 12.4389 5.74373L12.4387 5.73672L12.4392 5.73692L12.439 5.74373C12.439 5.84812 12.5801 5.93273 12.754 5.93273C12.928 5.93273 13.069 5.84812 13.069 5.74373C13.069 5.63935 12.928 5.55473 12.754 5.55473C12.7102 5.55473 12.6684 5.56012 12.6304 5.56984C12.6398 5.51788 12.6395 5.45819 12.6275 5.39637C12.5943 5.2256 12.4843 5.1033 12.3818 5.12322C12.2794 5.14314 12.2232 5.29772 12.2564 5.46849ZM10.403 5.71068C10.3868 5.67598 10.374 5.63698 10.3659 5.59506C10.3327 5.42428 10.3888 5.2697 10.4913 5.24978C10.5938 5.22986 10.7037 5.35216 10.7369 5.52293C10.749 5.58475 10.7493 5.64445 10.7399 5.6964C10.7779 5.68668 10.8196 5.6813 10.8635 5.6813C11.0375 5.6813 11.1785 5.76592 11.1785 5.8703C11.1785 5.97468 11.0375 6.0593 10.8635 6.0593C10.6946 6.0593 10.5567 5.9795 10.5489 5.87931C10.541 5.9795 10.4032 6.0593 10.2342 6.0593C10.0602 6.0593 9.91922 5.97468 9.91922 5.8703C9.91922 5.76592 10.0602 5.6813 10.2342 5.6813C10.2963 5.6813 10.3542 5.69207 10.403 5.71068ZM14.3488 5.82606C14.3343 5.92942 14.1829 5.99359 14.0106 5.96938C13.8383 5.94517 13.7104 5.84175 13.7249 5.73838C13.7395 5.63501 13.8909 5.57085 14.0632 5.59506C14.125 5.60375 14.1811 5.62263 14.2269 5.64805C14.2155 5.61107 14.2081 5.57018 14.2059 5.52698C14.1968 5.35325 14.2739 5.20798 14.3781 5.20252C14.4824 5.19705 14.5743 5.33346 14.5834 5.50719C14.5867 5.57068 14.5785 5.63037 14.5617 5.68082C14.6009 5.67635 14.6434 5.67679 14.6872 5.68295C14.8595 5.70716 14.9874 5.81058 14.9728 5.91395C14.9583 6.01732 14.8069 6.08148 14.6346 6.05727C14.4623 6.03306 14.3344 5.92964 14.349 5.82627L14.3503 5.8186L14.3496 5.81827L14.3488 5.82606ZM15.5491 6.32465C15.7027 6.40633 15.8669 6.39782 15.9159 6.30566L15.9187 6.30017C15.9338 6.31613 15.9517 6.32775 15.9721 6.33398C16.0719 6.3645 16.194 6.25437 16.2449 6.088C16.2958 5.92163 16.2561 5.76203 16.1562 5.73151C16.0564 5.70099 15.9343 5.81112 15.8834 5.97749C15.871 6.01807 15.864 6.05825 15.8619 6.09625C15.8276 6.05685 15.7814 6.02009 15.7265 5.9909C15.5729 5.90923 15.4087 5.91773 15.3597 6.00989C15.3107 6.10206 15.3955 6.24298 15.5491 6.32465ZM9.36591 6.36333C9.21231 6.445 9.04806 6.4365 8.99905 6.34433C8.99809 6.34252 8.99718 6.34069 8.99632 6.33884C8.98121 6.3548 8.96333 6.36642 8.94294 6.37265C8.84312 6.40317 8.72097 6.29304 8.6701 6.12667C8.61924 5.96031 8.65893 5.8007 8.75875 5.77018C8.85857 5.73966 8.98072 5.84979 9.03159 6.01616C9.04399 6.05674 9.05101 6.09692 9.05309 6.13492C9.08744 6.09552 9.13355 6.05876 9.18845 6.02957C9.34206 5.9479 9.50631 5.9564 9.55531 6.04856C9.60432 6.14073 9.51952 6.28165 9.36591 6.36333Z" fill="#C88A02"/>
<path fill-rule="evenodd" clip-rule="evenodd" d="M12.3605 2.1875H12.623V2.35273H12.7947V2.61523H12.623V3.14023H12.7947V3.40273H12.1865V3.14023H12.3605V2.61523H12.1865V2.35273H12.3605V2.1875Z" fill="#C88A02"/>
<rect x="12.3125" y="3.61328" width="0.504" height="1.638" fill="#C88A02"/>
<path d="M10.2839 3.88051L10.2817 4.00649C9.16449 3.98699 8.52363 4.15003 8.36095 4.47499C8.19276 4.81094 8.22404 5.21934 8.4597 5.70447L8.34637 5.75953C8.09493 5.24191 8.06059 4.7935 8.24828 4.41858C8.44148 4.03266 9.11943 3.86018 10.2839 3.88051Z" fill="white"/>
<path d="M10.5 5.00183L10.4354 5.11002C10.1921 4.96474 10.0703 4.71682 10.0703 4.37516C10.0703 3.88412 10.3233 3.59617 10.8828 3.39911C11.2399 3.27335 11.7277 3.32491 12.3476 3.54966L12.3046 3.66812C11.7096 3.45236 11.2491 3.40369 10.9246 3.51796C10.4114 3.6987 10.1963 3.94358 10.1963 4.37516C10.1963 4.67498 10.2975 4.88091 10.5 5.00183Z" fill="white"/>
<path d="M8.61851 5.51441L8.38075 5.59791C8.13406 4.89552 8.20451 4.41851 8.62604 4.21274C8.99748 4.03143 9.53881 3.95764 10.2527 3.98657L10.2425 4.23836C9.56659 4.21097 9.06371 4.27952 8.73658 4.4392C8.45956 4.57443 8.40888 4.91754 8.61851 5.51441Z" fill="#C88A02"/>
<path d="M11.3963 3.71684C10.8201 3.71684 10.5835 3.85717 10.4483 4.27149C10.3622 4.53553 10.4457 4.76089 10.7166 4.97124L10.5621 5.17028C10.2114 4.89794 10.0877 4.56439 10.2088 4.19333C10.381 3.66532 10.719 3.46484 11.3963 3.46484C11.8401 3.46484 12.1859 3.58146 12.4267 3.81879L12.4642 3.8558V5.07076H12.2122V3.96351C12.0242 3.80019 11.7541 3.71684 11.3963 3.71684Z" fill="#C88A02"/>
<path d="M14.6812 4.00942L14.6834 4.1354C15.8006 4.11589 16.4415 4.27894 16.6041 4.60389C16.7723 4.93985 16.741 5.34824 16.5054 5.83338L16.6187 5.88843C16.8702 5.37082 16.9045 4.92241 16.7168 4.54749C16.5236 4.16157 15.8457 3.98909 14.6812 4.00942Z" fill="white"/>
<path d="M14.2866 5.02527L14.3512 5.13345C14.5945 4.98818 14.7163 4.74026 14.7163 4.39859C14.7163 3.90755 14.4634 3.6196 13.9038 3.42255C13.5467 3.29679 13.0589 3.34835 12.439 3.5731L12.482 3.69156C13.0771 3.4758 13.5375 3.42713 13.862 3.54139C14.3752 3.72214 14.5903 3.96702 14.5903 4.39859C14.5903 4.69842 14.4892 4.90434 14.2866 5.02527Z" fill="white"/>
<path d="M16.4249 5.63941L16.6627 5.72291C16.9094 5.02052 16.8389 4.54351 16.4174 4.33774C16.046 4.15643 15.5046 4.08264 14.7907 4.11157L14.8009 4.36336C15.4769 4.33597 15.9797 4.40452 16.3069 4.5642C16.5839 4.69943 16.6346 5.04254 16.4249 5.63941Z" fill="#C88A02"/>
<path d="M13.633 3.73637C14.2092 3.73637 14.4458 3.8767 14.581 4.29102C14.6671 4.55506 14.5836 4.78042 14.3127 4.99077L14.4672 5.18981C14.8179 4.91747 14.9416 4.58393 14.8205 4.21286C14.6483 3.68485 14.3103 3.48438 13.633 3.48438C13.1892 3.48438 12.8434 3.60099 12.6026 3.83832L12.5651 3.87533V5.09029H12.8171V3.98304C13.0051 3.81972 13.2752 3.73637 13.633 3.73637Z" fill="#C88A02"/>
<path opacity="0.3" fill-rule="evenodd" clip-rule="evenodd" d="M8.40649 8.02344H16.5965V15.3819C16.5965 15.3819 15.9881 17.8514 12.5015 17.8514C9.01487 17.8514 8.40649 15.3168 8.40649 15.3168V8.02344Z" fill="#E1E5E8"/>
<mask id="mask3_9035_24519" style="mask-type:luminance" maskUnits="userSpaceOnUse" x="8" y="8" width="9" height="10">
<path fill-rule="evenodd" clip-rule="evenodd" d="M8.40649 8.02344H16.5965V15.3819C16.5965 15.3819 15.9881 17.8514 12.5015 17.8514C9.01487 17.8514 8.40649 15.3168 8.40649 15.3168V8.02344Z" fill="white"/>
</mask>
<g mask="url(#mask3_9035_24519)">
<rect x="8.40649" y="12.5586" width="4.158" height="4.914" fill="#FFC034"/>
<rect x="8.91016" y="12.8125" width="0.504" height="4.662" fill="#AD1619"/>
<rect x="10.6741" y="12.8125" width="0.504" height="4.662" fill="#AD1619"/>
<rect x="9.79248" y="12.8125" width="0.504" height="4.662" fill="#AD1619"/>
<rect x="11.5564" y="12.8125" width="0.504" height="4.662" fill="#AD1619"/>
<rect x="8.40649" y="7.89844" width="4.158" height="4.788" fill="#AD1619"/>
<rect x="12.439" y="12.4336" width="4.158" height="4.788" fill="#AD1619"/>
<rect x="12.439" y="8.02344" width="4.41" height="4.662" fill="#F1F9FF"/>
<path fill-rule="evenodd" clip-rule="evenodd" d="M10.1715 8.39844H10.5495V9.44258H10.8008V8.92227H11.1788V9.44258H11.5571V10.0959H11.179V11.2742H11.5571V11.9276H9.28906V11.2742H9.66699V10.0959H9.28906V9.44258H9.54131V8.92227H9.91931V9.44258H10.1715V8.39844Z" fill="#C88A02"/>
<path d="M14.6018 8.61998L14.8598 8.34375L15.4016 8.8498L15.1435 9.12603L14.6018 8.61998Z" fill="#C88A02"/>
<path fill-rule="evenodd" clip-rule="evenodd" d="M16.1561 15.7547V12.9961H13.0061V15.7316L13.0111 15.7529C13.1706 16.4323 13.7136 16.7761 14.5811 16.7761C15.4478 16.7761 15.9907 16.4412 16.1508 15.7765L16.1561 15.7547ZM14.581 16.3998C13.885 16.3998 13.5049 16.1653 13.384 15.6887V13.3758H15.778V15.7106C15.6575 16.1717 15.2773 16.3998 14.581 16.3998Z" fill="#FFC034"/>
<path fill-rule="evenodd" clip-rule="evenodd" d="M14.7104 13.2305H14.4479V14.4821L13.4135 13.357L13.228 13.5276L14.1638 14.5453H13.3159V14.9233H13.9673H14.1846L13.2281 15.9637L13.4136 16.1342L14.4479 15.0093V16.4692H14.7104V15.1399L15.6247 16.1342L15.8102 15.9637L14.8536 14.9233H15.9213V14.5453H14.8745L15.8103 13.5276L15.6247 13.357L14.7104 14.3514V13.2305Z" fill="#FFC034"/>
<path fill-rule="evenodd" clip-rule="evenodd" d="M15.1688 17.2223C15.1688 17.2223 12.5001 17.4321 12.5001 15.7109C12.5001 15.7109 12.4746 17.2223 9.68799 17.2223V18.5811H15.1688V17.2223Z" fill="#F1F9FF"/>
<path fill-rule="evenodd" clip-rule="evenodd" d="M12.5014 13.5668C13.0233 13.5668 13.4464 13.1155 13.4464 12.5588C13.4464 12.0021 13.0233 11.5508 12.5014 11.5508C11.9795 11.5508 11.5564 12.0021 11.5564 12.5588C11.5564 13.1155 11.9795 13.5668 12.5014 13.5668Z" fill="#005BBF" stroke="#AD1619" stroke-width="1.3125"/>
</g>
</g>
</svg>
