<svg width="24" height="24" viewBox="0 0 24 24" fill="none" xmlns="http://www.w3.org/2000/svg">
<path fill-rule="evenodd" clip-rule="evenodd" d="M-5.5332 -1.89844H29.9335V24.7016H-5.5332V-1.89844Z" fill="#E31D1C"/>
<path fill-rule="evenodd" clip-rule="evenodd" d="M-5.53316 0.318359V2.53503H29.9335V0.318359H-5.53316ZM-5.5332 4.75166V6.96833H29.9335V4.75166H-5.5332ZM-5.5332 11.4017V9.18499H29.9335V11.4017H-5.5332ZM-5.5332 13.6183V15.835H29.9335V13.6183H-5.5332ZM-5.5332 20.2683V18.0517H29.9335V20.2683H-5.5332ZM-5.5332 24.7017V22.485H29.9335V24.7017H-5.5332Z" fill="#F7FCFF"/>
<rect x="-5.5332" y="-1.89844" width="19.95" height="15.5167" fill="#2E42A5"/>
<path fill-rule="evenodd" clip-rule="evenodd" d="M-3.22777 2.91883L-2.05312 2.10059L-1.14194 2.75658H-1.65785L-0.614531 3.67937L-0.966917 4.97324H-1.51884L-2.05476 3.7849L-2.5118 4.97324H-3.87451L-2.8312 5.89603L-3.22777 7.35216L-2.05312 6.53392L-1.14194 7.18991H-1.65785L-0.614531 8.1127L-0.966917 9.40657H-1.51884L-2.05476 8.21823L-2.5118 9.40657H-3.87451L-2.8312 10.3294L-3.22777 11.7855L-2.05312 10.9673L-0.916557 11.7855L-1.26992 10.3294L-0.357167 9.40657H-0.778173L0.163549 8.75059L1.07473 9.40657H0.558821L1.60214 10.3294L1.20556 11.7855L2.38022 10.9673L3.51678 11.7855L3.16341 10.3294L4.07617 9.40657H3.65516L4.59688 8.75059L5.50806 9.40657H4.99215L6.03547 10.3294L5.63889 11.7855L6.81355 10.9673L7.95011 11.7855L7.59674 10.3294L8.5095 9.40657H8.08849L9.03021 8.75059L9.94139 9.40657H9.42549L10.4688 10.3294L10.0722 11.7855L11.2469 10.9673L12.3834 11.7855L12.0301 10.3294L12.9428 9.40657H11.7812L11.2452 8.21823L10.7882 9.40657H10.1274L9.81341 8.1127L10.7262 7.18991H10.3052L11.2469 6.53392L12.3834 7.35216L12.0301 5.89603L12.9428 4.97324H11.7812L11.2452 3.7849L10.7882 4.97324H10.1274L9.81341 3.67937L10.7262 2.75658H10.3052L11.2469 2.10059L12.3834 2.91883L12.0301 1.4627L12.9428 0.539909H11.7812L11.2452 -0.648438L10.7882 0.539909H9.42549L10.4688 1.4627L10.1164 2.75658H9.56449L9.02857 1.56823L8.57153 2.75658H7.91073L7.59674 1.4627L8.5095 0.539909H7.34783L6.81191 -0.648438L6.35486 0.539909H4.99215L6.03547 1.4627L5.68308 2.75658H5.13116L4.59524 1.56823L4.1382 2.75658H3.4774L3.16341 1.4627L4.07617 0.539909H2.91449L2.37857 -0.648438L1.92153 0.539909H0.558821L1.60214 1.4627L1.24975 2.75658H0.697826L0.161907 1.56823L-0.295135 2.75658H-0.955932L-1.26992 1.4627L-0.357167 0.539909H-1.51884L-2.05476 -0.648438L-2.5118 0.539909H-3.87451L-2.8312 1.4627L-3.22777 2.91883ZM10.1164 7.18991L10.4688 5.89603L9.42549 4.97324H9.94139L9.03021 4.31726L8.08849 4.97324H8.5095L7.59674 5.89603L7.91073 7.18991H8.57153L9.02857 6.00156L9.56449 7.18991H10.1164ZM7.72473 7.18991L6.81355 6.53392L5.87182 7.18991H6.29283L5.38008 8.1127L5.69407 9.40657H6.35486L6.81191 8.21823L7.34783 9.40657H7.89975L8.25213 8.1127L7.20882 7.18991H7.72473ZM3.8188 8.1127L3.46642 9.40657H2.91449L2.37857 8.21823L1.92153 9.40657H1.26073L0.946745 8.1127L1.8595 7.18991H1.43849L2.38022 6.53392L3.2914 7.18991H2.77549L3.8188 8.1127ZM4.1382 7.18991H3.4774L3.16341 5.89603L4.07617 4.97324H3.65516L4.59688 4.31726L5.50806 4.97324H4.99215L6.03547 5.89603L5.68308 7.18991H5.13116L4.59524 6.00156L4.1382 7.18991ZM1.24975 7.18991L1.60214 5.89603L0.558821 4.97324H1.07473L0.163549 4.31726L-0.778174 4.97324H-0.357167L-1.26992 5.89603L-0.955932 7.18991H-0.295135L0.161907 6.00156L0.697826 7.18991H1.24975ZM8.25213 3.67937L7.89975 4.97324H7.34783L6.81191 3.7849L6.35486 4.97324H5.69407L5.38008 3.67937L6.29283 2.75658H5.87183L6.81355 2.10059L7.72473 2.75658H7.20882L8.25213 3.67937ZM3.2914 2.75658L2.38022 2.10059L1.43849 2.75658H1.8595L0.946745 3.67937L1.26073 4.97324H1.92153L2.37857 3.7849L2.91449 4.97324H3.46642L3.8188 3.67937L2.77549 2.75658H3.2914Z" fill="#F7FCFF"/>
</svg>
